<?xml version="1.0" encoding="UTF-8"?>
<svg id="ab2" xmlns="http://www.w3.org/2000/svg" viewBox="0 0 4100 950">
  <defs>
    <style>
      .cls-1 {
        fill: #fff;
        stroke-width: 0px;
      }
    </style>
  </defs>
  <g>
    <rect class="cls-1" width="300" height="280"/>
    <rect class="cls-1" x="330" width="80" height="80"/>
    <rect class="cls-1" x="330" y="95" width="185" height="185"/>
    <rect class="cls-1" x="330" y="310" width="185" height="185"/>
    <rect class="cls-1" x="545" y="310" width="185" height="185"/>
    <rect class="cls-1" x="190" y="310" width="110" height="185"/>
  </g>
  <g id="text-outline">
    <polygon class="cls-1" points="98.78 950 40 950 40 740 98.78 740 98.78 827.89 194.84 740 250 740 147.56 842.37 250 950 194.84 950 98.78 862.11 98.78 950"/>
    <polygon class="cls-1" points="338.78 914.03 490 914.03 490 950 280 950 280 740 490 740 490 775.97 338.78 775.97 338.78 914.03"/>
    <polygon class="cls-1" points="520 775.97 520 740 730 740 730 950 520 950 520 914.03 674.84 914.03 674.84 862.11 520 862.11 520 827.89 674.84 827.89 674.84 775.97 520 775.97"/>
  </g>
  <rect class="cls-1" x="190" y="525" width="540" height="185"/>
  <path class="cls-1" d="m545,95v185h185V95h-185Zm137.5,137.5h-90v-90h90v90Z"/>
  <polygon class="cls-1" points="1073.57 710 970 710 970 340 1073.57 340 1073.57 494.85 1242.81 340 1340 340 1159.5 520.36 1340 710 1242.81 710 1073.57 555.15 1073.57 710"/>
  <polygon class="cls-1" points="1503.57 646.62 1770 646.62 1770 710 1400 710 1400 340 1770 340 1770 403.38 1503.57 403.38 1503.57 646.62"/>
  <polygon class="cls-1" points="1830 403.38 1830 340 2200 340 2200 710 1830 710 1830 646.62 2102.81 646.62 2102.81 555.15 1830 555.15 1830 494.85 2102.81 494.85 2102.81 403.38 1830 403.38"/>
  <polygon class="cls-1" points="3730 403.38 3730 340 4100 340 4100 710 3730 710 3730 646.62 4002.81 646.62 4002.81 555.15 3730 555.15 3730 494.85 4002.81 494.85 4002.81 403.38 3730 403.38"/>
  <path class="cls-1" d="m2870,340v370h370v-370h-370Zm272.81,306.62h-169.24v-243.23h169.24v243.23Z"/>
  <polygon class="cls-1" points="2810 646.62 2810 710 2440 710 2440 494.85 2712.81 494.85 2712.81 403.38 2440 403.38 2440 340 2810 340 2810 555.15 2543.57 555.15 2543.57 646.62 2810 646.62"/>
  <polygon class="cls-1" points="3670 646.62 3670 710 3300 710 3300 494.85 3572.81 494.85 3572.81 403.38 3300 403.38 3300 340 3670 340 3670 555.15 3403.57 555.15 3403.57 646.62 3670 646.62"/>
</svg>